<svg width="30" height="30" viewBox="0 0 30 30" fill="none" xmlns="http://www.w3.org/2000/svg">
<circle cx="15" cy="15" r="15" fill="url(#paint0_linear_420_1130)"/>
<path d="M11.4 8.02344C12.8322 8.02344 14.2057 8.65552 15.2184 9.78063C16.2311 10.9057 16.8 12.4317 16.8 14.0229C16.8 15.614 16.2311 17.14 15.2184 18.2651C14.2057 19.3902 12.8322 20.0223 11.4 20.0223C9.96783 20.0223 8.59432 19.3902 7.58162 18.2651C6.56893 17.14 6 15.614 6 14.0229C6 12.4317 6.56893 10.9057 7.58162 9.78063C8.59432 8.65552 9.96783 8.02344 11.4 8.02344ZM19.5 9.02334C20.85 9.02334 21.75 11.2621 21.75 14.0229C21.75 16.7836 20.85 19.0224 19.5 19.0224C18.15 19.0224 17.25 16.7836 17.25 14.0229C17.25 11.2621 18.15 9.02334 19.5 9.02334ZM23.1 9.52329C23.442 9.52329 23.7408 10.3502 23.892 11.7691L23.9343 12.212L23.9514 12.447L23.9784 12.941L23.9874 13.1999L23.9982 13.7409L24 14.0229L23.9982 14.3048L23.9874 14.8458L23.9784 15.1058L23.9514 15.5987L23.9334 15.8337L23.8929 16.2766C23.7408 17.6965 23.4429 18.5224 23.1 18.5224C22.758 18.5224 22.4592 17.6955 22.308 16.2766L22.2657 15.8337C22.2595 15.7554 22.2538 15.6771 22.2486 15.5987L22.2216 15.1048C22.2181 15.0185 22.2151 14.9321 22.2126 14.8458L22.2018 14.3048V13.7409L22.2126 13.1999L22.2216 12.94L22.2486 12.447L22.2666 12.212L22.3071 11.7691C22.4592 10.3492 22.7571 9.52329 23.1 9.52329Z" fill="white"/>
<defs>
<linearGradient id="paint0_linear_420_1130" x1="30" y1="0" x2="0" y2="30" gradientUnits="userSpaceOnUse">
<stop offset="0.243506" stop-color="#FFAE4E"/>
<stop offset="0.859185" stop-color="#FF4C8C"/>
</linearGradient>
</defs>
</svg>
