<svg width="30" height="31" viewBox="0 0 30 31" fill="none" xmlns="http://www.w3.org/2000/svg">
<ellipse cx="15" cy="15.5" rx="11" ry="10.5" fill="white"/>
<path d="M15 0.0273438C6.72 0.0273438 0 6.7467 0 15.0259C0 23.3051 6.72 30.0245 15 30.0245C23.28 30.0245 30 23.3051 30 15.0259C30 6.7467 23.28 0.0273438 15 0.0273438ZM21.96 10.2264C21.735 12.5961 20.76 18.3556 20.265 21.0103C20.055 22.1352 19.635 22.5102 19.245 22.5552C18.375 22.6302 17.715 21.9852 16.875 21.4303C15.555 20.5604 14.805 20.0204 13.53 19.1805C12.045 18.2056 13.005 17.6656 13.86 16.7957C14.085 16.5708 17.925 13.0761 18 12.7611C18.0104 12.7134 18.009 12.6639 17.996 12.6168C17.9829 12.5698 17.9585 12.5266 17.925 12.4911C17.835 12.4162 17.715 12.4461 17.61 12.4611C17.475 12.4911 15.375 13.886 11.28 16.6457C10.68 17.0507 10.14 17.2607 9.66 17.2457C9.12 17.2307 8.1 16.9457 7.335 16.6907C6.39 16.3908 5.655 16.2258 5.715 15.7008C5.745 15.4309 6.12 15.1609 6.825 14.8759C11.205 12.9711 14.115 11.7112 15.57 11.1113C19.74 9.37145 20.595 9.07147 21.165 9.07147C21.285 9.07147 21.57 9.10147 21.75 9.25146C21.9 9.37144 21.945 9.53643 21.96 9.65642C21.945 9.74641 21.975 10.0164 21.96 10.2264Z" fill="url(#paint0_linear_393_373)"/>
<defs>
<linearGradient id="paint0_linear_393_373" x1="30" y1="0.0273438" x2="0.00288596" y2="30.0273" gradientUnits="userSpaceOnUse">
<stop offset="0.243506" stop-color="#FFAE4E"/>
<stop offset="0.859185" stop-color="#FF4C8C"/>
</linearGradient>
</defs>
</svg>
