<svg width="30" height="31" viewBox="0 0 30 31" fill="none" xmlns="http://www.w3.org/2000/svg">
<ellipse cx="15" cy="16.5" rx="11" ry="10.5" fill="white"/>
<mask id="mask0_393_376" style="mask-type:alpha" maskUnits="userSpaceOnUse" x="0" y="0" width="30" height="31">
<path d="M15 0.0273438C6.71562 0.0273438 0 6.74232 0 15.0259C0 23.3095 6.71562 30.0245 15 30.0245C23.2844 30.0245 30 23.3095 30 15.0259C30 6.74232 23.2844 0.0273438 15 0.0273438ZM20.7687 16.9492C20.7687 16.9492 22.0953 18.2584 22.4219 18.8662C22.4312 18.8787 22.4359 18.8912 22.4391 18.8974C22.5719 19.1208 22.6031 19.2942 22.5375 19.4239C22.4281 19.6395 22.0531 19.7458 21.925 19.7551H19.5812C19.4187 19.7551 19.0781 19.7129 18.6656 19.4286C18.3484 19.2067 18.0359 18.8427 17.7312 18.4881C17.2766 17.96 16.8828 17.5038 16.4859 17.5038C16.4355 17.5037 16.3854 17.5116 16.3375 17.5272C16.0375 17.6241 15.6531 18.0522 15.6531 19.1927C15.6531 19.5489 15.3719 19.7536 15.1734 19.7536H14.1C13.7344 19.7536 11.8297 19.6255 10.1422 17.8459C8.07656 15.6665 6.21719 11.295 6.20156 11.2544C6.08437 10.9716 6.32656 10.8201 6.59062 10.8201H8.95781C9.27344 10.8201 9.37656 11.0122 9.44844 11.1825C9.53281 11.3809 9.84219 12.1699 10.35 13.0573C11.1734 14.5041 11.6781 15.0915 12.0828 15.0915C12.1587 15.0906 12.2332 15.0713 12.3 15.0353C12.8281 14.7416 12.7297 12.8589 12.7062 12.4683C12.7062 12.3949 12.7047 11.6262 12.4344 11.2575C12.2406 10.9904 11.9109 10.8888 11.7109 10.8513C11.7919 10.7396 11.8985 10.649 12.0219 10.5873C12.3844 10.406 13.0375 10.3795 13.6859 10.3795H14.0469C14.75 10.3888 14.9313 10.4342 15.1859 10.4982C15.7016 10.6216 15.7125 10.9544 15.6672 12.0934C15.6531 12.4168 15.6391 12.7824 15.6391 13.2136C15.6391 13.3073 15.6344 13.4073 15.6344 13.5135C15.6187 14.0932 15.6 14.7509 16.0094 15.0212C16.0628 15.0547 16.1245 15.0726 16.1875 15.0728C16.3297 15.0728 16.7578 15.0728 17.9172 13.0839C18.2747 12.4437 18.5855 11.7785 18.8469 11.0935C18.8703 11.0528 18.9391 10.9279 19.0203 10.8794C19.0803 10.8489 19.1468 10.8333 19.2141 10.8341H21.9969C22.3 10.8341 22.5078 10.8794 22.5469 10.9966C22.6156 11.1825 22.5344 11.7497 21.2641 13.4698L20.6969 14.2182C19.5453 15.7274 19.5453 15.804 20.7687 16.9492Z" fill="url(#paint0_linear_393_376)"/>
</mask>
<g mask="url(#mask0_393_376)">
<path d="M15 0.0273438C6.71562 0.0273438 0 6.74232 0 15.0259C0 23.3095 6.71562 30.0245 15 30.0245C23.2844 30.0245 30 23.3095 30 15.0259C30 6.74232 23.2844 0.0273438 15 0.0273438ZM20.7687 16.9492C20.7687 16.9492 22.0953 18.2584 22.4219 18.8662C22.4312 18.8787 22.4359 18.8912 22.4391 18.8974C22.5719 19.1208 22.6031 19.2942 22.5375 19.4239C22.4281 19.6395 22.0531 19.7458 21.925 19.7551H19.5812C19.4187 19.7551 19.0781 19.7129 18.6656 19.4286C18.3484 19.2067 18.0359 18.8427 17.7312 18.4881C17.2766 17.96 16.8828 17.5038 16.4859 17.5038C16.4355 17.5037 16.3854 17.5116 16.3375 17.5272C16.0375 17.6241 15.6531 18.0522 15.6531 19.1927C15.6531 19.5489 15.3719 19.7536 15.1734 19.7536H14.1C13.7344 19.7536 11.8297 19.6255 10.1422 17.8459C8.07656 15.6665 6.21719 11.295 6.20156 11.2544C6.08437 10.9716 6.32656 10.8201 6.59062 10.8201H8.95781C9.27344 10.8201 9.37656 11.0122 9.44844 11.1825C9.53281 11.3809 9.84219 12.1699 10.35 13.0573C11.1734 14.5041 11.6781 15.0915 12.0828 15.0915C12.1587 15.0906 12.2332 15.0713 12.3 15.0353C12.8281 14.7416 12.7297 12.8589 12.7062 12.4683C12.7062 12.3949 12.7047 11.6262 12.4344 11.2575C12.2406 10.9904 11.9109 10.8888 11.7109 10.8513C11.7919 10.7396 11.8985 10.649 12.0219 10.5873C12.3844 10.406 13.0375 10.3795 13.6859 10.3795H14.0469C14.75 10.3888 14.9313 10.4342 15.1859 10.4982C15.7016 10.6216 15.7125 10.9544 15.6672 12.0934C15.6531 12.4168 15.6391 12.7824 15.6391 13.2136C15.6391 13.3073 15.6344 13.4073 15.6344 13.5135C15.6187 14.0932 15.6 14.7509 16.0094 15.0212C16.0628 15.0547 16.1245 15.0726 16.1875 15.0728C16.3297 15.0728 16.7578 15.0728 17.9172 13.0839C18.2747 12.4437 18.5855 11.7785 18.8469 11.0935C18.8703 11.0528 18.9391 10.9279 19.0203 10.8794C19.0803 10.8489 19.1468 10.8333 19.2141 10.8341H21.9969C22.3 10.8341 22.5078 10.8794 22.5469 10.9966C22.6156 11.1825 22.5344 11.7497 21.2641 13.4698L20.6969 14.2182C19.5453 15.7274 19.5453 15.804 20.7687 16.9492Z" fill="url(#paint1_linear_393_376)"/>
</g>
<defs>
<linearGradient id="paint0_linear_393_376" x1="30" y1="0.0273438" x2="0.00288596" y2="30.0273" gradientUnits="userSpaceOnUse">
<stop offset="0.243506" stop-color="#FFAE4E"/>
<stop offset="0.859185" stop-color="#FF4C8C"/>
</linearGradient>
<linearGradient id="paint1_linear_393_376" x1="30" y1="0.0273438" x2="0.00288596" y2="30.0273" gradientUnits="userSpaceOnUse">
<stop offset="0.243506" stop-color="#FFAE4E"/>
<stop offset="0.859185" stop-color="#FF4C8C"/>
</linearGradient>
</defs>
</svg>
